<?xml version="1.0" encoding="utf-8"?>
<!-- Generator: Adobe Illustrator 16.0.3, SVG Export Plug-In . SVG Version: 6.00 Build 0)  -->
<!DOCTYPE svg PUBLIC "-//W3C//DTD SVG 1.1 Basic//EN" "http://www.w3.org/Graphics/SVG/1.1/DTD/svg11-basic.dtd">
<svg version="1.1" baseProfile="basic" id="Layer_1"
	 xmlns="http://www.w3.org/2000/svg" xmlns:xlink="http://www.w3.org/1999/xlink" x="0px" y="0px" width="283.46px"
	 height="283.46px" viewBox="0 0 283.46 283.46" xml:space="preserve">
<path fill-rule="evenodd" clip-rule="evenodd" fill="#5FB5E2" d="M274.514,141.729c0.611,72.302-58.557,133.45-133.038,133.559
	C67.338,275.396,7.729,215.368,7.739,141.786C7.749,68.804,66.684,8.295,141.286,8.363C216.34,8.433,274.938,69.58,274.514,141.729z
	"/>
<g>
	<path fill-rule="evenodd" clip-rule="evenodd" fill="#121212" d="M129.386,91.64c-0.02-0.586-0.413-1.027-0.671-1.513
		c-1.843-3.449-3.627-6.933-5.576-10.321c-0.897-1.562-0.79-2.818,0.131-4.308c2.448-3.959,4.776-7.993,7.2-12.08
		c-1.906-1.718-3.782-3.412-5.662-5.103c-2.569-2.313-5.137-4.624-7.712-6.927c-0.714-0.638-1.311-1.328-1.13-2.37
		c0.163-0.939,0.888-1.432,1.613-1.92c5.007-3.379,10.012-6.762,15.015-10.146c2.05-1.386,4.092-2.783,6.144-4.166
		c1.698-1.145,2.156-1.144,3.881,0.024c14.295,9.675,28.588,19.353,42.879,29.031c14.436,9.775,28.869,19.554,43.306,29.326
		c0.427,0.288,0.86,0.615,1.341,0.764c1.252,0.385,1.706,1.268,1.729,2.475c0.014,0.691,0.014,1.382,0.014,2.074
		c0,35.538,0,71.076,0,106.614c0,3.259-0.421,3.678-3.674,3.678c-57.943,0-115.888,0-173.833-0.001c-0.749,0-1.5,0.026-2.246-0.015
		c-1.384-0.077-2.102-0.771-2.225-2.132c-0.041-0.457-0.016-0.921-0.016-1.381c0-35.941,0-71.884,0-107.825
		c0-0.46-0.029-0.924,0.016-1.381c0.129-1.323,0.886-2.077,2.216-2.205c0.456-0.044,0.92-0.01,1.381-0.01
		c24.825-0.001,49.65,0,74.475-0.009C128.419,91.813,128.889,91.965,129.386,91.64z"/>
	<path fill-rule="evenodd" clip-rule="evenodd" fill="#FDFDFD" d="M223.031,201.741c-54.909,0-109.818,0-164.772,0
		c0.042-0.615,0.518-0.805,0.83-1.083c17.879-15.946,35.767-31.885,53.652-47.823c1.369-1.221,1.145-0.981,2.336,0.052
		c0.565,0.491,1.095,1.031,1.699,1.467c0.949,0.683,1.749,0.64,2.688-0.078c0.364-0.279,0.682-0.618,1.014-0.938
		c3.274-3.158,6.565-6.301,9.805-9.495c0.717-0.707,1.444-0.97,2.442-0.954c7.832,0.116,15.665,0.199,23.499,0.241
		c1.051,0.006,1.828,0.293,2.617,0.997c21.137,18.87,42.296,37.716,63.453,56.563c0.297,0.266,0.619,0.502,0.93,0.753
		C223.16,201.541,223.096,201.641,223.031,201.741z"/>
	<path fill-rule="evenodd" clip-rule="evenodd" fill="#8C8B8A" d="M221.887,91.644c-0.586,0.388-0.992,0.26-1.373,0.26
		c-7.888,0.008-15.773,0.006-23.661,0.004c-1.755-0.001-1.76-0.003-2.347-1.754c-1.259-3.76-2.506-7.525-3.77-11.284
		c-0.988-2.938-1.648-3.264-4.557-2.288c-14.649,4.908-29.308,9.789-43.938,14.753c-2.387,0.809-4.777,0.455-7.173,0.561
		c-0.556,0.024-0.79-0.393-1.012-0.806c-2.259-4.205-4.496-8.424-6.796-12.606c-0.442-0.804-0.024-1.298,0.317-1.875
		c2.284-3.861,4.574-7.719,6.862-11.577c0.059-0.101,0.12-0.197,0.178-0.297c1.022-1.753,0.955-2.429-0.506-3.761
		c-2.552-2.325-5.13-4.623-7.7-6.931c-1.37-1.23-2.75-2.45-4.112-3.688c-0.775-0.704-0.784-0.769,0.097-1.373
		c2.467-1.693,4.955-3.354,7.431-5.031c3.19-2.163,6.376-4.331,9.567-6.492c1.281-0.868,1.288-0.867,2.531-0.025
		c8.574,5.806,17.146,11.615,25.718,17.422c14.527,9.839,29.057,19.676,43.584,29.515c3.191,2.162,6.381,4.325,9.569,6.49
		C221.123,91.08,221.438,91.319,221.887,91.644z"/>
	<path fill-rule="evenodd" clip-rule="evenodd" fill="#FDFDFD" d="M110.577,148.92c-18.731,16.331-37.328,32.545-56.106,48.917
		c0-33.029,0-65.834,0-98.915C73.212,115.623,91.798,132.185,110.577,148.92z"/>
	<path fill-rule="evenodd" clip-rule="evenodd" fill="#FDFDFD" d="M170.726,148.901c18.753-16.713,37.31-33.248,55.828-49.753
		c0.146,0.05,0.206,0.062,0.254,0.09c0.042,0.025,0.103,0.07,0.103,0.106c0.029,32.235,0.055,64.47,0.08,96.705
		c0,0.502,0,1.003,0,1.905C208.081,181.47,189.457,165.232,170.726,148.901z"/>
	<path fill-rule="evenodd" clip-rule="evenodd" fill="#FDFDFD" d="M57.812,96.112c0.986,0,1.593,0,2.2,0
		c23.199-0.001,46.397-0.001,69.596-0.001c0.23,0,0.466,0.033,0.69-0.007c0.972-0.167,1.276,0.356,1.427,1.213
		c0.45,2.546,0.96,5.082,1.443,7.622c0.139,0.733,0.167,1.507,0.422,2.196c0.563,1.525,0.121,2.694-0.831,3.947
		c-2.399,3.16-4.619,6.457-7.003,9.63c-0.949,1.264-1.028,2.395-0.411,3.824c1.705,3.956,3.285,7.965,4.929,11.947
		c0.253,0.613,0.392,1.092-0.208,1.664c-4.001,3.807-7.963,7.655-12.058,11.607C98.026,131.948,78.073,114.166,57.812,96.112z"/>
	<path fill-rule="evenodd" clip-rule="evenodd" fill="#FBF2A0" d="M135.713,114.711c0.071-1.061,0.872-1.728,1.46-2.454
		c1.064-1.316,1.368-2.625,0.957-4.309c-0.683-2.786-1.114-5.633-1.667-8.451c-0.297-1.515-0.315-1.515,1.169-2.012
		c11.687-3.914,23.373-7.829,35.06-11.74c4.238-1.419,8.479-2.831,12.719-4.242c1.361-0.453,1.383-0.454,1.807,0.802
		c3.863,11.479,7.721,22.96,11.566,34.445c0.169,0.503,0.499,1.005-0.125,1.542c-2.174,1.875-4.299,3.806-6.473,5.742
		c-0.408-0.464-0.049-1.112-0.563-1.411c-3.123-1.718-6.342-3.249-9.527-4.845c-2.506-1.255-3.082-1.06-4.318,1.386
		c-0.908,1.797-1.818,3.595-2.7,5.403c-0.546,1.12-1.28,1.333-2.373,0.779c-1.899-0.961-3.786-1.948-5.719-2.841
		c-1.944-0.898-2.806-0.601-3.779,1.271c-0.903,1.734-1.736,3.505-2.64,5.24c-0.885,1.697-1.29,1.835-2.982,1.026
		c-1.559-0.742-3.088-1.544-4.637-2.305c-2.627-1.288-3.359-1.045-4.788,1.566c-0.136,0.255-0.291,0.499-0.435,0.749
		c-0.061,0.115-0.131,0.229-0.202,0.338c-0.096,0.163-0.189,0.33-0.272,0.502c-0.049,0.115-0.108,0.227-0.168,0.338
		c-0.051,0.116-0.108,0.228-0.166,0.342c-0.052,0.116-0.111,0.228-0.172,0.34c-0.053,0.117-0.111,0.23-0.17,0.345
		c-0.051,0.118-0.112,0.23-0.174,0.343c-0.053,0.118-0.111,0.232-0.17,0.348c-0.053,0.118-0.113,0.23-0.175,0.343
		c-0.052,0.117-0.111,0.229-0.169,0.344c-0.051,0.115-0.111,0.225-0.172,0.334c-0.05,0.112-0.107,0.223-0.164,0.332
		c-0.05,0.109-0.109,0.217-0.17,0.32c-0.082,0.161-0.162,0.322-0.243,0.485c-0.056,0.11-0.126,0.208-0.206,0.3
		c-0.088,0.089-0.186,0.16-0.296,0.217c-0.119,0.038-0.239,0.049-0.364,0.03c-0.177-0.049-0.344-0.125-0.511-0.201
		c-0.112-0.043-0.221-0.097-0.327-0.152c-0.108-0.051-0.214-0.107-0.319-0.162c-0.109-0.048-0.214-0.104-0.317-0.163
		c-0.156-0.083-0.313-0.166-0.475-0.24c-0.112-0.044-0.22-0.098-0.328-0.152c-0.113-0.048-0.221-0.103-0.331-0.157
		c-0.115-0.05-0.224-0.107-0.334-0.165c-0.115-0.05-0.226-0.109-0.338-0.166c-0.117-0.05-0.229-0.109-0.34-0.17
		c-0.117-0.052-0.229-0.111-0.343-0.17c-0.118-0.051-0.23-0.111-0.344-0.172c-0.116-0.052-0.229-0.112-0.343-0.17
		c-0.117-0.052-0.229-0.111-0.34-0.172c-0.115-0.052-0.226-0.11-0.336-0.168c-0.113-0.051-0.222-0.11-0.33-0.169
		c-0.11-0.051-0.217-0.11-0.324-0.166c-0.108-0.05-0.213-0.107-0.316-0.166c-0.155-0.086-0.311-0.17-0.472-0.246
		c-0.113-0.044-0.221-0.097-0.329-0.152c-0.172-0.078-0.345-0.154-0.523-0.222c-0.131-0.037-0.258-0.077-0.387-0.112
		c-0.345-0.076-0.684-0.065-1.02,0.038c-0.127,0.055-0.255,0.105-0.379,0.163c-0.316,0.145-0.551,0.4-0.822,0.605
		c-0.063,0.027-0.128,0.053-0.192,0.077c-0.221,0.009-0.468,0.082-0.584-0.203c-1.212-2.971-2.417-5.943-3.644-8.907
		c-0.145-0.351-0.192-0.633,0.04-0.952c1.012-1.393,2.015-2.79,3.018-4.188c0.208-0.291,0.5-0.204,0.778-0.197
		c0.079-0.009,0.158-0.017,0.237-0.026c0.333-0.002,0.635,0.112,0.934,0.241c1.046,0.484,2.06,1.034,3.106,1.514
		c1.513,0.691,2.127,0.528,3.038-0.879c1.161-1.796,1.813-3.848,2.816-5.728c0.992-1.86,1.307-2.025,3.213-1.102
		c1.762,0.854,3.486,1.786,5.264,2.604c1.859,0.856,2.695,0.557,3.634-1.249c0.93-1.788,1.771-3.623,2.726-5.396
		c0.813-1.511,1.367-1.687,2.932-0.952c1.824,0.857,3.595,1.825,5.418,2.685c1.855,0.874,2.658,0.604,3.637-1.233
		c0.895-1.676,1.699-3.399,2.561-5.094c1.064-2.089,1.293-2.161,3.453-1.1c1.498,0.737,2.983,1.501,4.482,2.236
		c0.621,0.305,1.25,0.595,1.94,0.709c0.758,0.126,1.387-0.101,1.756-0.793c0.399-0.751,0.265-1.457-0.351-2.044
		c-0.635-0.605-1.434-0.953-2.205-1.34c-2.266-1.135-4.528-2.275-6.803-3.389c-2.148-1.053-2.84-0.808-3.953,1.368
		c-0.916,1.794-1.844,3.586-2.709,5.404c-0.605,1.273-1.398,1.496-2.628,0.855c-1.89-0.982-3.78-1.971-5.724-2.842
		c-1.819-0.814-2.58-0.545-3.512,1.205c-0.893,1.677-1.695,3.4-2.561,5.092c-1.092,2.132-1.518,2.278-3.621,1.254
		c-1.708-0.834-3.388-1.726-5.11-2.526c-1.681-0.781-2.527-0.517-3.419,1.102c-1.001,1.813-1.857,3.706-2.821,5.54
		C138.155,116.356,137.329,116.423,135.713,114.711z"/>
	<path fill-rule="evenodd" clip-rule="evenodd" fill="#FBF2A0" d="M189.046,125.551c0.245,0.13,0.489,0.26,0.938,0.5
		c-0.319,0.266-0.608,0.49-0.881,0.733c-5.112,4.554-10.227,9.105-15.328,13.669c-0.609,0.546-1.171,1.009-2.096,0.939
		c-0.986-0.073-1.484,0.678-1.934,1.467c-0.453,0.794-0.677,1.714-1.35,2.388c-0.82,0.821-0.926,0.85-1.814,0.066
		c-1.77-1.559-3.58-3.079-5.266-4.724c-1.23-1.2-2.539-1.771-4.295-1.7c-2.641,0.106-5.291-0.017-7.938-0.061
		c-0.418-0.006-0.978,0.169-1.045-0.546c-0.001-0.061-0.003-0.119-0.006-0.179c0.012-0.118,0.041-0.233,0.082-0.345
		c0.041-0.109,0.096-0.213,0.155-0.314c0.08-0.152,0.158-0.307,0.228-0.464c0.04-0.108,0.092-0.211,0.147-0.312
		c0.044-0.104,0.097-0.205,0.151-0.306c0.046-0.105,0.104-0.204,0.165-0.302c0.082-0.153,0.159-0.309,0.231-0.468
		c0.046-0.112,0.1-0.218,0.156-0.325c0.05-0.113,0.105-0.222,0.16-0.333c0.049-0.115,0.107-0.225,0.168-0.335
		c0.051-0.115,0.107-0.227,0.164-0.337c0.051-0.115,0.11-0.227,0.17-0.336c0.052-0.113,0.109-0.224,0.166-0.335
		c0.052-0.114,0.112-0.224,0.174-0.333c0.084-0.172,0.165-0.347,0.243-0.525c0.052-0.129,0.112-0.251,0.179-0.375
		c0.139-0.272,0.301-0.526,0.563-0.699c0.798-0.419,1.451,0.048,2.109,0.366c1.709,0.826,3.384,1.724,5.105,2.525
		c1.967,0.915,2.927,0.589,3.943-1.326c0.945-1.777,1.827-3.589,2.711-5.397c0.611-1.251,1.453-1.486,2.665-0.861
		c1.688,0.869,3.387,1.716,5.094,2.546c2.369,1.155,3.134,0.889,4.397-1.471c0.869-1.624,1.531-3.348,2.395-4.975
		c0.906-1.709,1.21-1.862,2.956-0.932C184.828,123.264,187.16,123.996,189.046,125.551z"/>
	<path fill-rule="evenodd" clip-rule="evenodd" fill="#050607" d="M189.046,125.551c-1.97-0.65-3.716-1.774-5.588-2.633
		c-0.781-0.357-1.542-0.761-2.409-1.19c-0.814,1.115-1.279,2.403-1.905,3.599c-0.638,1.221-1.212,2.475-1.847,3.696
		c-0.9,1.734-1.908,2.098-3.654,1.264c-2.121-1.013-4.211-2.091-6.323-3.122c-1.073-0.524-1.097-0.514-1.643,0.565
		c-1.034,2.049-2.035,4.116-3.081,6.161c-0.943,1.845-1.912,2.178-3.775,1.276c-2.064-1-4.097-2.063-6.16-3.065
		c-0.47-0.228-0.998-0.729-1.523-0.045c-0.199,0.183-0.139,0.495-0.332,0.681l-0.007,0.013c-0.211,0.177-0.144,0.493-0.339,0.678
		l-0.007,0.014c-0.211,0.176-0.143,0.494-0.342,0.675l-0.006,0.015c-0.208,0.177-0.14,0.493-0.341,0.674l-0.008,0.017
		c-0.205,0.182-0.14,0.495-0.334,0.682l-0.006,0.012c-0.212,0.179-0.146,0.495-0.338,0.682l-0.005,0.01
		c-0.216,0.176-0.148,0.494-0.341,0.681l-0.005,0.012c-0.215,0.174-0.146,0.492-0.345,0.675l-0.006,0.014
		c-0.208,0.182-0.146,0.494-0.332,0.687c0,0-0.006,0.009-0.006,0.01c-2.428,0.748-4.858,1.144-7.294,0.027
		c-0.061-0.012-0.121-0.021-0.182-0.031c-0.124-0.02-0.243-0.055-0.358-0.102c-0.116-0.049-0.227-0.106-0.337-0.167
		c-0.116-0.051-0.228-0.11-0.34-0.166c-0.117-0.052-0.229-0.111-0.34-0.172c-0.116-0.052-0.227-0.109-0.339-0.167
		c-0.114-0.051-0.224-0.109-0.332-0.169c-0.11-0.049-0.217-0.106-0.323-0.162c-0.105-0.048-0.207-0.105-0.307-0.164
		c-0.145-0.076-0.292-0.153-0.442-0.217c-0.096-0.032-0.192-0.067-0.29-0.096c0,0.006-0.146-0.004-0.146-0.004
		s-0.146,0.022-0.144,0.029c-0.088,0.054-0.167,0.112-0.234,0.191c-0.062,0.092-0.132,0.17-0.208,0.245
		c0,0.002-0.141,0.08-0.141,0.08c-0.352,0.115-0.818,0.5-1.016-0.055c-0.521-1.47-1.615-2.765-1.417-4.463l-0.004,0.011
		c0.274-0.422,0.73-0.67,1.03-1.067l-0.014,0.01c0.634-0.226,1.271-0.185,1.909-0.015c0.099-0.049,0.169-0.021,0.211,0.08
		c0.14,0.121,0.278,0.248,0.477,0.264c0.101-0.045,0.172-0.018,0.215,0.084c0.141,0.119,0.278,0.246,0.476,0.262
		c0.101-0.044,0.173-0.015,0.215,0.086c0.142,0.119,0.279,0.246,0.478,0.259c0.1-0.043,0.171-0.015,0.214,0.087
		c0.146,0.121,0.287,0.253,0.494,0.256c0.096-0.046,0.161-0.02,0.196,0.08c0.144,0.131,0.287,0.263,0.499,0.266
		c0.095-0.048,0.159-0.021,0.192,0.08c0.141,0.128,0.281,0.258,0.487,0.268c0.098-0.045,0.166-0.017,0.205,0.084
		c0.143,0.123,0.282,0.252,0.486,0.261c0.098-0.044,0.166-0.016,0.205,0.084c0.148,0.128,0.292,0.263,0.507,0.261l0.116-0.016
		l0.067,0.096c0.149,0.133,0.295,0.271,0.517,0.264l0.111-0.018l0.063,0.094c0.143,0.135,0.287,0.269,0.502,0.271l0.117-0.016
		l0.072,0.096c0.146,0.131,0.29,0.266,0.506,0.265l-0.002,0.019c0.236-0.018,0.393-0.153,0.516-0.342l-0.013,0.018
		c0.243-0.17,0.18-0.495,0.356-0.697l-0.004,0.009c0.234-0.175,0.174-0.498,0.35-0.7l-0.004,0.008
		c0.234-0.174,0.174-0.496,0.349-0.701l-0.005,0.01c0.236-0.175,0.178-0.497,0.348-0.705l-0.006,0.013
		c0.241-0.171,0.18-0.495,0.354-0.698l-0.005,0.008c0.236-0.174,0.176-0.496,0.35-0.703l-0.006,0.012
		c0.239-0.175,0.18-0.497,0.349-0.706l-0.007,0.014c0.25-0.173,0.174-0.509,0.356-0.716c0.038-0.537,0.368-0.954,0.601-1.407
		c0.947-1.844,1.916-2.192,3.757-1.302c2.011,0.972,3.997,1.995,5.997,2.988c1.313,0.649,1.324,0.646,1.995-0.688
		c0.954-1.894,1.89-3.798,2.845-5.691c1.121-2.221,1.998-2.508,4.249-1.389c2.253,1.121,4.497,2.256,6.724,3.374
		c0.557-0.204,0.624-0.704,0.82-1.09c1.039-2.043,2.039-4.106,3.094-6.142c0.936-1.807,1.859-2.138,3.615-1.282
		c2.982,1.453,5.953,2.937,8.916,4.433c0.541,0.274,1.194,0.484,1.336,1.223c-0.009,0.113-0.021,0.226-0.025,0.34
		C191.516,125.278,191.418,125.377,189.046,125.551z"/>
	<path fill-rule="evenodd" clip-rule="evenodd" fill="#050607" d="M135.713,114.711c0.057,0.006,0.12,0,0.171,0.021
		c0.678,0.287,1.433,0.918,2.01,0.782c0.749-0.176,0.852-1.26,1.216-1.958c0.903-1.73,1.741-3.496,2.648-5.226
		c0.867-1.652,1.849-1.999,3.535-1.201c2.129,1.008,4.221,2.093,6.334,3.133c1.096,0.539,1.117,0.536,1.652-0.515
		c1.017-1.997,2.007-4.008,3.018-6.008c1.102-2.177,1.885-2.443,4.119-1.358c1.756,0.853,3.469,1.796,5.241,2.611
		c2.181,1.005,1.577,1.281,2.696-0.846c0.963-1.83,1.836-3.707,2.777-5.548c0.967-1.888,1.856-2.196,3.75-1.274
		c2.941,1.434,5.867,2.901,8.795,4.362c0.308,0.153,0.612,0.33,0.875,0.547c0.822,0.679,1.05,1.732,0.599,2.634
		c-0.485,0.971-1.563,1.456-2.612,1.122c-0.488-0.156-0.952-0.403-1.414-0.633c-2.211-1.101-4.416-2.21-6.742-3.376
		c-1.018,2.023-2.066,3.996-3.012,6.019c-1.457,3.118-2.031,3.891-5.791,1.896c-1.92-1.02-3.885-1.953-5.928-2.974
		c-1.119,2.223-2.176,4.319-3.229,6.417c-0.181,0.359-0.33,0.735-0.523,1.088c-0.837,1.527-1.826,1.889-3.438,1.138
		c-1.873-0.872-3.709-1.823-5.558-2.746c-1.995-0.995-1.99-0.997-2.944,0.929c-0.893,1.802-1.778,3.608-2.697,5.398
		c-0.972,1.891-1.829,2.187-3.757,1.243c-1.125-0.55-2.318-0.98-3.328-1.752c-0.147-0.291-0.471-0.234-0.703-0.357l-0.015-0.004
		C133.658,116.738,134.762,115.772,135.713,114.711z"/>
	<path fill-rule="evenodd" clip-rule="evenodd" fill="#8C8B8A" d="M223.044,96.461c-2.2,2.273-4.671,4.254-7.013,6.373
		c-4.01,3.629-8.065,7.205-12.109,10.794c-0.332,0.295-0.592,0.725-1.256,0.751c-0.689-2.021-1.396-4.072-2.09-6.13
		c-1.232-3.646-2.461-7.296-3.682-10.946c-0.09-0.268-0.107-0.56-0.158-0.841c0.359-0.259,0.775-0.17,1.17-0.17
		c7.989-0.006,15.979-0.006,23.967-0.001C222.269,96.292,222.684,96.204,223.044,96.461z"/>
	<path fill-rule="evenodd" clip-rule="evenodd" fill="#9B8E88" d="M223.044,96.461c-8.769,0-17.538,0-26.308,0.001
		c0.332-0.669,0.944-0.333,1.411-0.335c6.612-0.025,13.224-0.019,19.836-0.017c1.667,0.002,3.333,0.014,5.001,0.025
		c0.049,0,0.139,0.06,0.137,0.084C223.113,96.302,223.072,96.381,223.044,96.461z"/>
	<path fill-rule="evenodd" clip-rule="evenodd" fill="#F2EA9E" d="M140.745,138.311c-0.079,0.246-0.258,0.366-0.504,0.366
		c-1.412,0.005-2.824,0.003-4.163,0.003c-0.308-0.656,0.267-0.979,0.205-1.439l0.005-0.01c0.219-0.171,0.131-0.515,0.381-0.667
		l-0.018,0.021c0.216-0.245,0.431-0.251,0.645,0.001l-0.007-0.006c0.212,0.159,0.537,0.096,0.698,0.354l-0.011-0.007
		c0.217,0.153,0.536,0.097,0.708,0.343l-0.008-0.004c0.208,0.166,0.531,0.103,0.697,0.353l-0.007-0.005
		c0.21,0.163,0.533,0.101,0.698,0.352l-0.008-0.006c0.211,0.162,0.532,0.103,0.7,0.351H140.745z"/>
	<path fill-rule="evenodd" clip-rule="evenodd" fill="#131312" d="M141.231,161.769c11.144,0.031,20.586,7.623,22.821,18.386
		c0.245,1.178,0.324,2.393,0.458,3.593c0.116,1.032-0.079,1.96-1.026,2.569c-0.979,0.628-1.854,0.279-2.725-0.283
		c-4.169-2.694-8.757-4.296-13.635-5.05c-8.841-1.364-17.166,0.135-24.913,4.663c-0.396,0.23-0.774,0.502-1.186,0.7
		c-1.613,0.776-3.079-0.065-3.143-1.863c-0.083-2.32,0.252-4.603,1.041-6.785c3.19-8.839,9.464-14.009,18.701-15.643
		C138.824,161.844,140.022,161.781,141.231,161.769z"/>
	<path fill-rule="evenodd" clip-rule="evenodd" fill="#121212" d="M134.875,131.666c0.036,0.721-0.563,0.831-1.03,1.067
		C133.961,132.158,134.28,131.779,134.875,131.666z"/>
	<path fill-rule="evenodd" clip-rule="evenodd" fill="#121212" d="M136.77,131.661c-0.636,0.005-1.272,0.01-1.909,0.015
		C135.494,131.182,136.131,131.217,136.77,131.661z"/>
	<path fill-rule="evenodd" clip-rule="evenodd" fill="#121212" d="M145.946,133.069c0.007,0.295-0.054,0.557-0.349,0.701
		C145.602,133.481,145.668,133.223,145.946,133.069z"/>
	<path fill-rule="evenodd" clip-rule="evenodd" fill="#121212" d="M145.602,133.763c0.006,0.294-0.055,0.555-0.35,0.7
		C145.258,134.175,145.324,133.916,145.602,133.763z"/>
	<path fill-rule="evenodd" clip-rule="evenodd" fill="#121212" d="M145.256,134.454c0.006,0.295-0.057,0.557-0.356,0.697
		C144.911,134.863,144.979,134.604,145.256,134.454z"/>
	<path fill-rule="evenodd" clip-rule="evenodd" fill="#121212" d="M146.982,130.993c0.008,0.297-0.053,0.559-0.35,0.703
		C146.64,131.408,146.705,131.149,146.982,130.993z"/>
	<path fill-rule="evenodd" clip-rule="evenodd" fill="#121212" d="M146.638,131.688c0.006,0.295-0.056,0.557-0.354,0.698
		C146.291,132.098,146.358,131.839,146.638,131.688z"/>
	<path fill-rule="evenodd" clip-rule="evenodd" fill="#121212" d="M147.325,130.299c0.01,0.298-0.05,0.561-0.349,0.706
		C146.98,130.714,147.041,130.452,147.325,130.299z"/>
	<path fill-rule="evenodd" clip-rule="evenodd" fill="#121212" d="M147.675,129.597c0.005,0.302-0.052,0.57-0.356,0.716
		C147.324,130.018,147.391,129.753,147.675,129.597z"/>
	<path fill-rule="evenodd" clip-rule="evenodd" fill="#121212" d="M133.472,118.279c0.313-0.035,0.587,0.006,0.704,0.357
		C133.896,118.607,133.618,118.573,133.472,118.279z"/>
	<path fill-rule="evenodd" clip-rule="evenodd" fill="#121212" d="M146.289,132.374c0.009,0.297-0.05,0.56-0.348,0.705
		C145.945,132.789,146.007,132.527,146.289,132.374z"/>
	<path fill-rule="evenodd" clip-rule="evenodd" fill="#121212" d="M138.149,132.351c-0.159-0.087-0.317-0.175-0.476-0.262
		C137.892,132.066,138.055,132.146,138.149,132.351z"/>
	<path fill-rule="evenodd" clip-rule="evenodd" fill="#121212" d="M144.398,135.457c-0.213-0.006-0.385-0.087-0.506-0.265
		C144.116,135.176,144.293,135.247,144.398,135.457z"/>
	<path fill-rule="evenodd" clip-rule="evenodd" fill="#121212" d="M143.027,134.765c-0.215-0.004-0.392-0.084-0.517-0.264
		C142.735,134.486,142.918,134.554,143.027,134.765z"/>
	<path fill-rule="evenodd" clip-rule="evenodd" fill="#121212" d="M143.703,135.112c-0.213-0.009-0.383-0.093-0.502-0.271
		C143.426,134.825,143.6,134.902,143.703,135.112z"/>
	<path fill-rule="evenodd" clip-rule="evenodd" fill="#121212" d="M138.842,132.695c-0.159-0.086-0.318-0.172-0.478-0.259
		C138.582,132.417,138.747,132.491,138.842,132.695z"/>
	<path fill-rule="evenodd" clip-rule="evenodd" fill="#121212" d="M142.327,134.421c-0.211-0.005-0.384-0.085-0.507-0.261
		C142.042,134.142,142.221,134.21,142.327,134.421z"/>
	<path fill-rule="evenodd" clip-rule="evenodd" fill="#121212" d="M141.615,134.076c-0.206-0.006-0.37-0.089-0.486-0.261
		C141.348,133.796,141.517,133.87,141.615,134.076z"/>
	<path fill-rule="evenodd" clip-rule="evenodd" fill="#121212" d="M140.924,133.731c-0.207-0.009-0.372-0.093-0.487-0.268
		C140.658,133.446,140.827,133.523,140.924,133.731z"/>
	<path fill-rule="evenodd" clip-rule="evenodd" fill="#121212" d="M144.912,135.134c-0.104,0.213-0.283,0.316-0.515,0.342
		C144.568,135.361,144.74,135.247,144.912,135.134z"/>
	<path fill-rule="evenodd" clip-rule="evenodd" fill="#121212" d="M137.458,132.005c-0.202-0.009-0.363-0.093-0.477-0.264
		C137.201,131.719,137.365,131.798,137.458,132.005z"/>
	<path fill-rule="evenodd" clip-rule="evenodd" fill="#121212" d="M140.245,133.384c-0.21-0.007-0.379-0.09-0.499-0.266
		C139.969,133.1,140.143,133.175,140.245,133.384z"/>
	<path fill-rule="evenodd" clip-rule="evenodd" fill="#121212" d="M139.55,133.038c-0.207-0.004-0.375-0.084-0.494-0.256
		C139.275,132.763,139.448,132.831,139.55,133.038z"/>
	<path fill-rule="evenodd" clip-rule="evenodd" fill="#121212" d="M150.11,134.116c0.004-0.281,0.065-0.532,0.342-0.675
		C150.464,133.729,150.365,133.964,150.11,134.116z"/>
	<path fill-rule="evenodd" clip-rule="evenodd" fill="#121212" d="M148.045,138.273c-0.004-0.284,0.055-0.537,0.332-0.687
		C148.383,137.873,148.315,138.123,148.045,138.273z"/>
	<path fill-rule="evenodd" clip-rule="evenodd" fill="#121212" d="M149.422,135.503c0.001-0.281,0.061-0.534,0.334-0.682
		C149.766,135.108,149.684,135.349,149.422,135.503z"/>
	<path fill-rule="evenodd" clip-rule="evenodd" fill="#121212" d="M149.078,136.196c0-0.282,0.061-0.535,0.338-0.682
		C149.426,135.803,149.34,136.045,149.078,136.196z"/>
	<path fill-rule="evenodd" clip-rule="evenodd" fill="#121212" d="M150.805,132.737c0-0.281,0.061-0.533,0.332-0.681
		C151.146,132.342,151.064,132.582,150.805,132.737z"/>
	<path fill-rule="evenodd" clip-rule="evenodd" fill="#121212" d="M148.732,136.887c0-0.284,0.061-0.537,0.341-0.681
		C149.082,136.494,148.991,136.733,148.732,136.887z"/>
	<path fill-rule="evenodd" clip-rule="evenodd" fill="#121212" d="M148.383,137.573c0.004-0.281,0.066-0.533,0.345-0.675
		C148.736,137.187,148.637,137.419,148.383,137.573z"/>
	<path fill-rule="evenodd" clip-rule="evenodd" fill="#121212" d="M149.764,134.805c0.005-0.278,0.066-0.53,0.341-0.674
		C150.115,134.419,150.018,134.651,149.764,134.805z"/>
	<path fill-rule="evenodd" clip-rule="evenodd" fill="#121212" d="M150.459,133.428c0.001-0.281,0.063-0.534,0.339-0.678
		C150.809,133.038,150.717,133.274,150.459,133.428z"/>
	<path fill-rule="evenodd" clip-rule="evenodd" fill="#121212" d="M137.295,136.586c-0.215,0-0.43-0.001-0.645-0.001
		C136.866,136.193,137.081,136.184,137.295,136.586z"/>
	<path fill-rule="evenodd" clip-rule="evenodd" fill="#121212" d="M136.668,136.563c-0.05,0.268-0.121,0.521-0.381,0.667
		C136.294,136.939,136.364,136.685,136.668,136.563z"/>
	<path fill-rule="evenodd" clip-rule="evenodd" fill="#121212" d="M137.986,136.935c-0.282-0.02-0.561-0.049-0.698-0.354
		C137.592,136.558,137.857,136.614,137.986,136.935z"/>
	<path fill-rule="evenodd" clip-rule="evenodd" fill="#121212" d="M139.372,137.619c-0.284-0.017-0.556-0.055-0.697-0.353
		C138.976,137.248,139.239,137.305,139.372,137.619z"/>
	<path fill-rule="evenodd" clip-rule="evenodd" fill="#121212" d="M140.063,137.966c-0.281-0.021-0.556-0.055-0.698-0.352
		C139.667,137.595,139.93,137.65,140.063,137.966z"/>
	<path fill-rule="evenodd" clip-rule="evenodd" fill="#121212" d="M140.754,138.311c-0.285-0.015-0.559-0.05-0.7-0.351
		C140.357,137.938,140.621,137.995,140.754,138.311z"/>
	<path fill-rule="evenodd" clip-rule="evenodd" fill="#121212" d="M138.683,137.271c-0.282-0.018-0.563-0.04-0.708-0.343
		C138.279,136.902,138.544,136.957,138.683,137.271z"/>
	<path fill-rule="evenodd" clip-rule="evenodd" fill="#FBF2A0" d="M153.947,171.019c-1.221,0.686-2.579,0.968-3.868,1.421
		c-3.079,1.081-6.208,2.027-9.274,3.146c-2.14,0.78-4.382,0.827-6.579,1.201c-3.924,0.669-7.688,1.86-11.313,3.554
		c0.206-4.601,5.127-10.578,10.95-12.902C141.152,164.527,149.61,166.517,153.947,171.019z"/>
	<path fill-rule="evenodd" clip-rule="evenodd" fill="#8A8989" d="M159.783,180.552c-3.226-1.543-6.252-2.55-9.451-3.321
		c0.308-0.425,0.722-0.508,1.123-0.64c1.682-0.553,3.361-1.115,5.036-1.693c0.554-0.191,0.948-0.157,1.271,0.431
		C158.612,176.875,159.342,178.459,159.783,180.552z"/>
	<path fill-rule="evenodd" clip-rule="evenodd" fill="#B7B4B4" d="M78.94,139.657c-0.142-0.02-0.284-0.038-0.426-0.058
		c0.135-0.275,0.365-0.391,0.607-0.2C79.249,139.501,79.105,139.638,78.94,139.657z"/>
	<path fill-rule="evenodd" clip-rule="evenodd" fill="#A3A0A0" d="M202.983,139.656c-0.141,0.135-0.282,0.269-0.423,0.403
		c-0.313-0.103-0.549-0.464-0.411-0.623C202.446,139.091,202.75,139.383,202.983,139.656z"/>
	<path fill-rule="evenodd" clip-rule="evenodd" fill="#050607" d="M195.426,146.004c5.743,2.273,11.483,4.546,17.17,6.798
		c0,0.237,0.035,0.364-0.006,0.462c-0.48,1.16-0.974,2.317-1.463,3.475c-1.274-0.093-2.354-0.757-3.504-1.207
		c-6.822-2.673-13.641-5.355-20.449-8.063c-0.576-0.229-1.451-0.22-1.398-1.229c0.064-1.235-0.267-1.323,1.191-1.894
		c5.756-2.252,11.493-4.55,17.24-6.824c1.862-0.737,3.738-1.439,5.593-2.197c0.427-0.174,0.842-0.311,1.358-0.412
		c0.465,1.151,0.898,2.27,1.371,3.372c0.18,0.42,0.039,0.653-0.322,0.814c-0.367,0.162-0.743,0.303-1.116,0.451
		c-4.95,1.958-9.9,3.919-14.854,5.87C195.971,145.526,195.678,145.562,195.426,146.004z"/>
	<path fill-rule="evenodd" clip-rule="evenodd" fill="#050607" d="M85.64,147.323c-2.906-1.16-5.446-2.179-7.991-3.188
		c-2.82-1.119-5.646-2.224-8.464-3.349c-1.163-0.464-1.187-0.492-0.759-1.544c0.384-0.944,0.43-2.307,1.284-2.706
		c0.866-0.405,1.894,0.515,2.834,0.883c7.035,2.756,14.055,5.549,21.086,8.313c0.719,0.283,1.329,0.472,1.292,1.501
		c-0.032,0.888-0.32,1.307-1.131,1.624c-7.679,3.002-15.344,6.043-23.014,9.067c-1.149,0.453-1.175,0.45-1.657-0.785
		c-0.353-0.9-1.198-1.875-0.871-2.703c0.331-0.837,1.637-0.892,2.524-1.247C75.606,151.252,80.458,149.362,85.64,147.323z"/>
</g>
</svg>
